<?xml version="1.0" encoding="UTF-8" standalone="no"?>
<!-- Created with Inkscape (http://www.inkscape.org/) -->

<svg
   xmlns:dc="http://purl.org/dc/elements/1.1/"
   xmlns:cc="http://creativecommons.org/ns#"
   xmlns:rdf="http://www.w3.org/1999/02/22-rdf-syntax-ns#"
   xmlns:svg="http://www.w3.org/2000/svg"
   xmlns="http://www.w3.org/2000/svg"
   xmlns:sodipodi="http://sodipodi.sourceforge.net/DTD/sodipodi-0.dtd"
   xmlns:inkscape="http://www.inkscape.org/namespaces/inkscape"
   id="svg2"
   version="1.1"
   inkscape:version="0.91 r13725"
   width="202"
   height="202"
   viewBox="0 0 202 202"
   sodipodi:docname="localization.svg"
   inkscape:export-filename="localization.png"
   inkscape:export-xdpi="300"
   inkscape:export-ydpi="300">
  <sodipodi:namedview
     pagecolor="#ffffff"
     bordercolor="#666666"
     borderopacity="1"
     objecttolerance="10"
     gridtolerance="10"
     guidetolerance="10"
     inkscape:pageopacity="0"
     inkscape:pageshadow="2"
     inkscape:window-width="640"
     inkscape:window-height="480"
     id="namedview4"
     showgrid="false"
     inkscape:zoom="2.5940594"
     inkscape:cx="159.98092"
     inkscape:cy="101"
     inkscape:current-layer="svg2" />
  <metadata
     id="metadata8">
    <rdf:RDF>
      <cc:Work
         rdf:about="">
        <dc:format>image/svg+xml</dc:format>
        <dc:type
           rdf:resource="http://purl.org/dc/dcmitype/StillImage" />
        <dc:title></dc:title>
      </cc:Work>
    </rdf:RDF>
  </metadata>
  <defs
     id="defs6">
    <filter
       id="filter100854"
       style="color-interpolation-filters:sRGB"
       inkscape:menu-tooltip="Reduce or remove antialiasing around shapes"
       inkscape:menu="Pixel tools"
       inkscape:label="Pixellize">
      <feColorMatrix
         id="feColorMatrix100856"
         values="1 0 0 0 0 0 1 0 0 0 0 0 1 0 0 0 0 0 1000 -500 " />
    </filter>
  </defs>
  <path
     style="fill:#ba160c;fill-opacity:1"
     d="M 82.951705,199.82982 C 22.163466,188.27545 -14.000441,124.88882 7.0106412,66.723419 10.135835,58.071894 16.904017,45.726739 21.439943,40.404371 l 2.563409,-3.007842 2.338082,2.818024 2.338092,2.818022 5.0197,-3.125704 c 6.303616,-3.925187 14.953181,-5.147206 18.757777,-2.650115 2.394324,1.571485 6.152278,10.929765 5.084179,12.660925 -0.252351,0.408999 -3.264391,1.296534 -6.693423,1.972299 -18.295314,3.605485 -25.64716,10.269495 -24.561426,22.263473 0.972251,10.740347 6.806587,16.376624 16.836648,16.265086 7.490213,-0.0833 13.874523,-3.228187 17.406489,-8.574394 l 2.712455,-4.105753 1.803753,4.03563 c 1.712429,3.831326 1.973318,4.000368 5.153402,3.339129 3.915127,-0.814079 3.943644,1.586506 -0.280987,-23.653892 C 66.164533,39.033257 64.863892,34.819688 60.514116,30.994067 54.496962,25.701977 42.806611,25.833324 31.51023,31.31994 l -5.004586,2.430711 6.505962,-6.05328 C 50.916842,11.037975 71.968491,2.2334011 96.569843,1.1149819 122.52418,-0.06494677 145.82681,7.8423038 165.63312,24.550128 c 7.53203,6.353728 19.85697,20.850966 19.25767,22.651892 -0.68438,2.056623 -2.74254,1.908701 -2.74254,-0.197109 0,-2.809116 -1.77979,-2.672843 -2.18245,0.167102 -0.21763,1.534944 -1.11952,2.363117 -2.82213,2.591432 -1.37626,0.184553 -2.95271,0.805526 -3.50321,1.37994 -0.69031,0.720297 0.29161,0.882822 3.16426,0.523735 3.63734,-0.454674 4.23811,-0.248376 4.74069,1.6279 0.99707,3.722394 0.66788,4.654648 -1.64922,4.670444 -3.21643,0.02193 -5.00776,1.431084 -4.59405,3.613935 0.48219,2.544249 5.43552,3.068556 7.89827,0.836028 1.03182,-0.93537 2.56843,-1.434524 3.41469,-1.109233 0.9167,0.352364 1.53866,0.0435 1.53866,-0.764079 0,-0.745536 -0.83252,-1.573595 -1.85004,-1.840134 -2.68463,-0.703235 -3.76313,-6.850005 -1.49357,-8.512363 1.45667,-1.06694 1.97789,-0.845257 3.52608,1.499665 2.85421,4.323053 7.75359,16.703467 9.94667,25.134597 2.62936,10.108383 3.50908,27.5414 1.93425,38.33 -1.39757,9.57421 -5.66755,24.00794 -7.10236,24.00794 -0.52655,0 -0.95737,-0.48702 -0.95737,-1.08228 0,-0.67222 -1.09795,-0.84071 -2.89791,-0.4447 l -2.89792,0.63756 -0.67732,-6.32293 c -0.37252,-3.47761 -0.90201,-7.11738 -1.17664,-8.08836 -0.37388,-1.32192 0.23616,-1.91279 2.42829,-2.35197 2.68141,-0.53719 2.87293,-0.85246 2.27751,-3.74893 -0.54495,-2.65091 -1.05599,-3.11447 -3.15947,-2.86597 -2.45231,0.28971 -2.55163,0.0426 -4.36913,-10.87123 -1.85284,-11.126023 -1.86944,-11.165755 -4.45162,-10.649063 -1.42551,0.285244 -9.28995,1.773056 -17.47653,3.30625 l -14.88469,2.787627 0.67611,6.061056 c 2.03573,18.24964 2.1273,16.4097 -0.85397,17.15923 -2.29979,0.57818 -2.64689,1.13268 -2.38664,3.81274 0.2642,2.72075 0.65208,3.10059 2.9284,2.86774 2.22402,-0.22749 2.71973,0.21177 3.25298,2.88252 0.34602,1.73301 0.63407,5.2376 0.64014,7.788 0.006,2.5504 0.27885,6.25902 0.60622,8.24136 l 0.59521,3.60429 11.15455,-2.23114 c 19.61896,-3.92418 18.66143,-3.84988 18.66143,-1.44779 0,4.18696 -1.82197,5.9952 -6.04072,5.9952 -4.442,0 -4.344,-0.11737 -2.95588,3.53986 0.935,2.4634 1.38764,2.64122 5.90817,2.32115 4.61292,-0.32662 4.8343,-0.23205 3.83393,1.6379 -0.58391,1.09149 -4.70643,5.62419 -9.16115,10.07265 -13.30867,13.28997 -28.25489,21.87629 -46.4592,26.6899 -10.20072,2.69731 -31.672919,3.39106 -42.319865,1.36733 z m 52.986725,-38.86115 c 1.95823,-6.69587 5.51858,-24.9589 4.9273,-25.27478 -1.81644,-0.97034 -6.08195,-2.55483 -6.28492,-2.33463 -0.14612,0.1585 -1.02263,4.03118 -1.94781,8.60594 -0.92517,4.57477 -2.77429,11.53423 -4.10912,15.46547 -1.33484,3.93125 -2.42699,7.27987 -2.42699,7.4414 0,0.5287 5.47763,3.28427 6.61039,3.32541 0.60794,0.0221 2.06195,-3.23089 3.23115,-7.22881 z m -22.39263,-4.6982 c 0.31845,-0.51611 0.14514,-2.87254 -0.38511,-5.23653 -0.53025,-2.36398 -0.87681,-4.37046 -0.77013,-4.45886 0.10667,-0.0884 1.61616,-0.4657 3.3544,-0.83845 2.91965,-0.6261 3.21169,-0.44404 3.83297,2.38941 0.49985,2.27968 1.2303,3.06321 2.84506,3.0518 4.67913,-0.0331 4.66759,-0.32947 -1.19584,-30.73233 -3.10194,-16.08407 -5.86703,-29.470909 -6.14467,-29.748539 -0.44022,-0.440219 -19.00774,2.980857 -19.592676,3.609963 -0.122002,0.131218 1.754787,10.390046 4.170641,22.797386 2.415855,12.40735 5.120235,26.5066 6.009735,31.33168 1.58292,8.58661 1.67755,8.77287 4.45695,8.77287 1.56183,0 3.10024,-0.42228 3.41867,-0.9384 z m -2.77458,-18.30212 c -0.30739,-1.27362 -1.94162,-9.53449 -3.63162,-18.35749 -1.68999,-8.82301 -3.29534,-17.02121 -3.56741,-18.21823 -0.40412,-1.777926 0.0681,-2.300206 2.57878,-2.852595 1.69041,-0.371909 3.24223,-0.507162 3.44848,-0.300563 0.58871,0.589707 7.48919,36.271508 7.48919,38.725958 0,1.22765 -0.62609,2.19639 -1.41951,2.19639 -0.78074,0 -2.0764,0.2525 -2.87926,0.56111 -0.95046,0.36534 -1.65474,-0.24681 -2.01865,-1.75458 z m 24.84959,-21.89609 c 1.90131,-3.68297 1.51039,-4.41899 -3.78399,-7.12456 l -4.13342,-2.11229 -2.31542,2.69639 -2.31541,2.69639 4.76515,3.33743 c 2.62082,1.83558 5.09137,3.38389 5.49012,3.44068 0.39875,0.0567 1.43058,-1.26353 2.29297,-2.93404 z M 23.715448,112.7078 c -0.482903,-2.9808 -0.315439,-3.33252 1.37575,-2.88951 4.12535,1.08063 6.498555,-4.92605 3.881517,-9.824316 -1.077397,-2.016555 -5.398787,-2.674099 -6.443724,-0.98048 -0.325368,0.52735 -1.304756,0.68469 -2.176415,0.34964 -1.198528,-0.460704 -1.445274,-0.14455 -1.012287,1.297046 0.314898,1.04844 1.088728,4.95168 1.719626,8.67388 0.630908,3.72221 1.610205,6.76765 2.176224,6.76765 0.610499,0 0.805478,-1.38058 0.479309,-3.39391 z m -1.302354,-7.13129 c -0.853121,-3.40487 0.11945,-5.51663 2.540688,-5.51663 2.16048,0 3.73147,3.80169 2.692137,6.51475 -0.957127,2.49845 -4.527358,1.81746 -5.232825,-0.99812 z m -15.0105337,1.26664 c -0.7399681,-3.45508 -1.3612173,-6.57097 -1.380555,-6.924216 -0.019318,-0.35326 1.51704,-0.82379 3.4141884,-1.04565 l 3.4493513,-0.403371 1.215073,6.810667 c 1.117234,6.26224 2.896314,9.31674 2.896314,4.97266 0,-1.76274 -2.091577,-13.413106 -2.508729,-13.973948 -0.432937,-0.582062 -10.5031942,1.984523 -10.5031942,2.676928 0,1.22301 2.0610685,12.53877 2.5409783,13.95054 0.2461956,0.72425 0.8468559,1.06966 1.334803,0.76759 0.4991674,-0.30904 0.2987638,-3.29661 -0.4582298,-6.8312 z m 30.6506047,-3.40641 c 1.34248,-4.80298 2.921467,-4.329756 2.950444,0.88426 0.008,1.51645 0.52377,2.75718 1.145199,2.75718 0.783498,0 0.917991,-1.61362 0.438732,-5.26372 -1.094533,-8.33606 -2.969491,-8.425379 -5.596778,-0.26661 -1.097436,3.408 -1.400183,3.70241 -2.06192,2.00522 -0.42659,-1.0941 -0.807279,-3.00441 -0.845975,-4.245146 -0.03874,-1.240731 -0.571904,-2.255878 -1.184915,-2.255878 -1.05846,0 -0.531868,7.174484 0.777462,10.592324 0.931373,2.43124 3.106456,0.34068 4.377751,-4.20763 z m 17.280945,-0.27082 c 0.744061,-0.74531 0.657702,-1.81047 -0.290697,-3.585566 -0.74206,-1.388907 -1.052164,-2.822835 -0.689101,-3.186504 1.194915,-1.196943 -1.517901,-3.352559 -4.199448,-3.336906 -4.65983,0.0272 -5.260901,1.036686 -4.140594,6.954046 0.555589,2.93461 1.010176,5.45215 1.010176,5.59453 0,0.66235 7.374296,-1.50263 8.309664,-2.4396 z m -6.725353,-0.74454 c -0.881067,-2.29992 -0.815807,-2.3615 2.502763,-2.3615 3.465866,0 3.583854,1.84516 0.198212,3.09971 -1.502066,0.55659 -2.287156,0.34202 -2.700975,-0.73821 z m -0.874811,-4.992832 c -0.390228,-0.390889 -0.7095,-1.116651 -0.7095,-1.612814 0,-1.223713 5.01012,-0.527059 5.285933,0.735005 0.258227,1.181601 -3.544908,1.911082 -4.576433,0.877809 z m 96.461784,-0.445171 2.58463,-6.432966 15.93233,-3.018432 c 15.79205,-2.991852 15.93515,-3.042735 16.24961,-5.778407 0.19711,-1.714726 -0.23027,-2.970436 -1.12848,-3.3157 -0.79517,-0.30565 -7.35925,0.599268 -14.58688,2.010927 -7.22761,1.41166 -13.49814,2.566655 -13.9345,2.566655 -0.43637,0 -0.61606,-1.521649 -0.3993,-3.381441 0.3691,-3.166979 0.18178,-3.413798 -2.95351,-3.891619 -1.84118,-0.280599 -3.45182,-0.421664 -3.5792,-0.313478 -0.12737,0.108185 -0.89341,3.661624 -1.70232,7.896532 -0.8089,4.234907 -2.38824,9.777543 -3.50965,12.31697 l -2.03892,4.617132 2.23986,1.86982 c 1.23193,1.0284 2.69029,1.73869 3.24079,1.5784 0.55051,-0.16029 2.164,-3.18626 3.58554,-6.724393 z m -77.453317,4.499463 c 0.219111,-0.6702 -0.756323,-0.92031 -2.556903,-0.65558 -3.1979,0.47013 -5.239181,-1.465306 -3.026233,-2.869342 0.758655,-0.481345 2.392813,-0.88207 3.631447,-0.890522 2.625987,-0.01795 2.954948,-2.175884 0.679193,-4.455496 -5.164973,-5.173724 -10.846148,3.378799 -6.146993,9.25377 1.209729,1.51241 6.895799,1.21902 7.419489,-0.38283 z m -6.706045,-6.937328 c 0,-0.835511 0.889705,-1.503921 2.001834,-1.503921 1.112129,0 2.001835,0.66841 2.001835,1.503921 0,0.835511 -0.889706,1.503921 -2.001835,1.503921 -1.112129,0 -2.001834,-0.66841 -2.001834,-1.503921 z m 14.970167,5.765028 c -0.02392,-0.413576 -0.413909,-2.669458 -0.866524,-5.013068 -0.64416,-3.335433 -0.525972,-4.261108 0.544049,-4.261108 0.751838,0 1.366982,-0.451176 1.366982,-1.002614 0,-0.551437 -0.788222,-0.996452 -1.751605,-0.988923 -2.998127,0.02343 -6.255732,1.177257 -6.255732,2.215741 0,0.546121 0.652558,0.742111 1.450129,0.435534 1.486011,-0.571203 1.871435,0.198414 3.058793,6.107905 0.3601,1.792167 1.069339,3.258493 1.576104,3.258493 0.506764,0 0.901776,-0.33839 0.877804,-0.75196 z m 8.050927,-2.315054 c 0,-0.518893 -0.675619,-0.94344 -1.501376,-0.94344 -1.547828,0 -1.988532,1.183044 -0.861309,2.312178 0.799663,0.801016 2.362685,-0.10445 2.362685,-1.368738 z m 49.711818,-9.392764 c -0.24968,-0.65176 -2.5583,-2.288319 -5.13026,-3.636797 l -4.67631,-2.451778 -1.93612,2.366955 c -1.06487,1.301824 -1.91982,2.655353 -1.8999,3.007841 0.0199,0.352488 2.38458,2.240934 5.25481,4.196547 l 5.2186,3.555661 1.81157,-2.926705 c 0.99637,-1.609689 1.60729,-3.459964 1.35761,-4.111724 z m -51.822822,1.304314 c -0.837057,-5.304194 -1.447056,-6.669535 -2.505916,-5.608882 -0.79591,0.797256 1.579237,10.748665 2.56543,10.748665 0.413389,0 0.386605,-2.312903 -0.05955,-5.139783 z M 95.019202,78.921919 c 6.227088,-1.337738 6.950258,-3.444519 0.799953,-2.330493 -7.647547,1.385226 -9.2554,1.153563 -9.286889,-1.33807 -0.01561,-1.236248 -0.466037,-2.364188 -1.000917,-2.506534 -1.465793,-0.390086 -1.799189,4.155059 -0.426331,5.812056 1.436316,1.733595 3.228789,1.799232 9.914184,0.363041 z m 13.167178,-6.370028 c 0.91385,-5.63162 4.89859,-7.324853 4.89859,-2.081553 0,2.163704 2.27955,5.52682 3.74612,5.52682 1.88379,0 4.26122,-3.722678 4.26122,-6.672382 0,-4.589719 -1.80653,-4.255024 -2.19164,0.406046 -0.38807,4.696802 -3.14395,5.264218 -3.65221,0.75196 -0.44471,-3.948246 -1.99405,-5.703371 -4.36832,-4.948532 -1.72721,0.549126 -1.85388,0.2463 -1.24866,-2.985204 0.40736,-2.175135 0.27875,-3.596321 -0.32545,-3.596321 -0.54943,0 -1.52683,3.045439 -2.17199,6.767642 -0.64516,3.722204 -1.39144,7.826946 -1.65837,9.121652 -0.33473,1.623471 -0.0847,2.220215 0.80584,1.922883 0.71015,-0.237118 1.56734,-2.132973 1.90487,-4.213011 z m 20.97858,-4.666686 c -0.55952,-2.431396 -1.02831,-6.112629 -1.04176,-8.18052 -0.0168,-2.589164 -0.47234,-3.759802 -1.46292,-3.759802 -1.53499,0 -1.43612,2.097034 0.60776,12.890513 0.64062,3.383063 1.36813,5.019231 1.96563,4.420718 0.5975,-0.598512 0.57206,-2.586359 -0.0688,-5.370909 z m 11.82058,2.472251 c 4.98148,-0.997985 3.62382,-2.337382 -2.12695,-2.098333 -4.05169,0.168421 -5.28568,-0.1259 -5.38959,-1.285489 -0.29029,-3.239242 -0.46134,-3.449342 -1.43935,-1.767858 -1.43824,2.472739 0.55602,5.778313 3.48605,5.778313 1.28808,0 3.74951,-0.281985 5.46984,-0.626633 z m 20.37074,-3.546269 c 2.96583,-1.520296 3.86094,-4.283522 2.17065,-6.700839 -1.64516,-2.352763 -5.31067,-2.815634 -8.54907,-1.079553 -1.77435,0.951211 -1.97631,0.804602 -1.6858,-1.223702 0.25701,-1.794417 1.38221,-2.601178 5.08441,-3.645495 2.6149,-0.737609 4.75436,-1.796464 4.75436,-2.35301 0,-0.556545 -0.78822,-0.777334 -1.75161,-0.490642 -5.98586,1.781327 -7.25665,1.820531 -7.25665,0.223867 0,-0.886936 -0.67562,-1.612612 -1.50137,-1.612612 -0.82576,0 -1.50138,0.853441 -1.50138,1.896536 0,1.194943 -0.94082,2.133069 -2.54323,2.535928 -1.39877,0.351665 -2.29914,1.034984 -2.00083,1.518487 0.29831,0.483501 1.4827,0.63278 2.63197,0.331729 1.83886,-0.481687 2.06676,-0.139566 1.89943,2.851315 -0.28589,5.109779 -0.19495,5.211717 2.64994,2.970139 3.16454,-2.493446 7.19347,-2.707764 8.06639,-0.42909 0.85724,2.2377 -2.2587,4.366776 -6.39085,4.366776 -2.21224,0 -3.3119,0.478421 -3.3119,1.440885 0,1.099324 0.88975,1.303932 3.75344,0.863145 2.06439,-0.317757 4.53134,-0.976497 5.4821,-1.463864 z M 95.745538,64.441649 c 0.231752,-0.699142 -1.743478,-0.713373 -6.173647,-0.04449 -3.690932,0.557277 -6.514429,1.485401 -6.514429,2.141388 0,1.469294 12.172814,-0.542457 12.688076,-2.096905 z M 172.5794,61.490706 c -0.35823,-1.912736 -0.94166,-5.762993 -1.29651,-8.556126 -0.67831,-5.339233 -2.75813,-6.686661 -2.31757,-1.501458 0.5114,6.018909 2.33844,13.535285 3.29008,13.535285 0.57086,0 0.70521,-1.442151 0.324,-3.477701 z m -35.22219,-3.181507 c 2.06439,-0.341801 3.75344,-1.064828 3.75344,-1.606727 0,-1.184509 -9.0503,-0.03361 -10.45958,1.330121 -1.11753,1.081395 1.25451,1.179234 6.70614,0.276606 z m 49.79563,89.374841 c 0,-2.84074 0.3813,-3.50915 2.00183,-3.50915 2.40346,0 2.43436,0.26435 0.47476,4.06025 -1.98234,3.83991 -2.47659,3.72992 -2.47659,-0.5511 z m -30.46401,-4.42901 c -0.19111,-0.32123 -0.50889,-3.9465 -0.70617,-8.05615 l -0.35871,-7.47209 10.73982,-2.15376 c 12.30249,-2.46713 11.24012,-3.1254 12.31608,7.63123 l 0.6577,6.57511 -11.15064,2.02986 c -6.13285,1.11643 -11.30699,1.76703 -11.49808,1.4458 z m 15.9611,-8.12379 1.56318,-3.02798 -4.74634,-2.03796 -4.74634,-2.03796 -1.77346,2.30875 c -0.9754,1.26981 -1.78226,2.53433 -1.79301,2.81005 -0.0271,0.6964 7.2075,4.77125 8.70736,4.90434 0.67399,0.0599 1.92886,-1.25386 2.78861,-2.91924 z m -18.96657,-21.2255 c -0.37707,-4.03088 -0.68002,-7.77899 -0.67321,-8.32913 0.0119,-0.96175 14.34968,-4.37381 18.77596,-4.46825 1.86451,-0.0398 2.29555,0.79536 3.25298,6.3026 1.70302,9.79607 2.23217,9.11412 -8.65528,11.15458 -5.36742,1.00593 -10.26652,2.01799 -10.88689,2.24901 -0.73624,0.27418 -1.36604,-2.12509 -1.81356,-6.90881 z m 15.00062,-0.90505 c 0.88048,-1.70555 1.45506,-3.19564 1.27685,-3.31129 -7.35436,-4.77252 -8.59633,-4.97304 -10.30475,-1.66374 -1.4769,2.86085 -1.45514,2.90396 2.74463,5.44075 2.32833,1.40637 4.33436,2.57466 4.45785,2.59618 0.1235,0.0215 0.94493,-1.35634 1.82542,-3.0619 z M 39.538406,79.618326 c -3.074057,-3.07926 -4.142606,-8.592082 -2.36833,-12.218587 2.00777,-4.103747 5.520018,-6.215866 13.858038,-8.33363 8.777663,-2.22943 8.822654,-2.194156 8.9379,7.007296 0.05325,4.251935 -0.481732,6.444573 -2.201668,9.023523 -4.462318,6.691006 -13.757906,8.997009 -18.22594,4.521398 z M 177.14367,60.957952 c 0,-0.551438 1.15261,-1.002614 2.56136,-1.002614 1.4527,0 2.29361,0.433974 1.94276,1.002614 -0.34023,0.551438 -1.49284,1.002614 -2.56136,1.002614 -1.06852,0 -1.94276,-0.451176 -1.94276,-1.002614 z"
     id="path107563"
     inkscape:connector-curvature="0" />
</svg>
